<svg width="30" height="37" viewBox="0 0 30 37" fill="none" xmlns="http://www.w3.org/2000/svg">
<path d="M14.0049 1.25393L14.0049 1.25395L14.0069 1.266L14.0073 1.26853C14.0381 1.44954 14.3252 3.13987 14.6051 5.09218C14.8902 7.08113 15.1538 9.25096 15.1538 10.4063C15.1538 13.7871 13.3918 16.0935 10.8416 17.0261L10.1466 17.2803L10.1866 18.0193L11.1167 35.2226C11.1167 35.223 11.1167 35.2234 11.1167 35.2238C11.1377 35.6484 10.8005 36 10.3846 36H5.76923C5.35543 36 5.01631 35.6505 5.03711 35.2237C5.03713 35.2232 5.03716 35.2227 5.03718 35.2222L5.96729 18.0193L6.00728 17.2797L5.31149 17.0259C2.75631 16.0936 1 13.7816 1 10.4063C1 9.24732 1.26369 7.07741 1.54877 5.08953C1.82718 3.14816 2.11279 1.46698 2.14601 1.27142L2.14694 1.266L2.14701 1.26601L2.14891 1.25393C2.15064 1.24293 2.15307 1.23611 2.16242 1.22389C2.17465 1.20789 2.20528 1.17578 2.26989 1.13867C2.40724 1.05977 2.63171 0.997714 2.89554 1.00006C3.1599 1.00242 3.37472 1.0685 3.50105 1.14703C3.57786 1.19477 3.60473 1.23239 3.61538 1.26336V11.3819V11.5662L3.68109 11.7384C3.79899 12.0474 4.02015 12.2231 4.15967 12.3102C4.30548 12.4012 4.45129 12.4521 4.56076 12.4822C4.78173 12.543 5.01359 12.5621 5.20985 12.5607C5.40571 12.5594 5.63556 12.5374 5.85247 12.4747C5.9588 12.4439 6.10645 12.3909 6.25338 12.2945C6.39155 12.2039 6.63291 12.0053 6.73203 11.6521L6.76166 11.5465L6.76771 11.437C6.81304 10.6162 6.93414 8.47615 7.05383 6.36093C7.18502 4.04256 7.31452 1.75402 7.34072 1.26499C7.35149 1.23849 7.38007 1.199 7.46375 1.14939C7.597 1.07041 7.81542 1.00733 8.07602 1.00733C8.33673 1.00733 8.55413 1.07044 8.68586 1.14875C8.77054 1.19909 8.79716 1.23832 8.80657 1.26376L8.80995 1.32051L8.82692 1.61337C8.84109 1.8601 8.86068 2.20418 8.88411 2.6176C8.93098 3.44437 8.99317 4.54759 9.05807 5.70197C9.18788 8.01089 9.32847 10.5235 9.37892 11.437L9.38497 11.5465L9.41461 11.6521C9.51431 12.0074 9.75793 12.206 9.89563 12.2959C10.0427 12.3918 10.1903 12.4445 10.2966 12.4751C10.5134 12.5374 10.7434 12.5594 10.9395 12.5607C11.1357 12.5621 11.3682 12.5432 11.5897 12.482C11.6992 12.4518 11.8468 12.4002 11.9942 12.3069C12.1356 12.2175 12.3615 12.0349 12.4745 11.7141L12.5312 11.5529V11.3819V1.26463C12.5418 1.23548 12.5687 1.19841 12.6452 1.15099C12.773 1.07187 12.9898 1.00542 13.2558 1.00276C13.5213 1.00011 13.7469 1.06203 13.8848 1.1408C13.9496 1.17783 13.9801 1.20979 13.9921 1.22541C14.0011 1.2372 14.0033 1.24346 14.0049 1.25393ZM24.5857 21.8254L24.629 21.2894L24.2058 20.9577C21.5414 18.8695 20.1956 16.5957 19.6976 14.3949C19.1972 12.1831 19.5334 9.95642 20.3863 7.946C21.2412 5.93101 22.6013 4.16878 24.0852 2.91859C25.5916 1.64937 27.1111 1.0001 28.2692 1.0001C28.6714 1.0001 29 1.32818 29 1.73447V35.2656C29 35.6764 28.6741 36 28.2692 36H24.2308C23.806 36 23.4671 35.6332 23.5036 35.2063L23.504 35.2017L24.5857 21.8254Z" stroke="#0F3D3E" stroke-width="2"/>
</svg>
