<svg width="35" height="30" viewBox="0 0 35 30" fill="none" xmlns="http://www.w3.org/2000/svg">
<path d="M5.25 12.6C7.18047 12.6 8.75 10.7166 8.75 8.4C8.75 6.08344 7.18047 4.2 5.25 4.2C3.31953 4.2 1.75 6.08344 1.75 8.4C1.75 10.7166 3.31953 12.6 5.25 12.6ZM29.75 12.6C31.6805 12.6 33.25 10.7166 33.25 8.4C33.25 6.08344 31.6805 4.2 29.75 4.2C27.8195 4.2 26.25 6.08344 26.25 8.4C26.25 10.7166 27.8195 12.6 29.75 12.6ZM31.5 14.7H28C27.0375 14.7 26.168 15.1659 25.5336 15.9206C27.7375 17.3709 29.3016 19.9894 29.6406 23.1H33.25C34.218 23.1 35 22.1616 35 21V18.9C35 16.5834 33.4305 14.7 31.5 14.7ZM17.5 14.7C20.8852 14.7 23.625 11.4122 23.625 7.35C23.625 3.28781 20.8852 0 17.5 0C14.1148 0 11.375 3.28781 11.375 7.35C11.375 11.4122 14.1148 14.7 17.5 14.7ZM21.7 16.8H21.2461C20.1086 17.4562 18.8453 17.85 17.5 17.85C16.1547 17.85 14.8969 17.4562 13.7539 16.8H13.3C9.82187 16.8 7 20.1862 7 24.36V26.25C7 27.9891 8.17578 29.4 9.625 29.4H25.375C26.8242 29.4 28 27.9891 28 26.25V24.36C28 20.1862 25.1781 16.8 21.7 16.8ZM9.46641 15.9206C8.83203 15.1659 7.9625 14.7 7 14.7H3.5C1.56953 14.7 0 16.5834 0 18.9V21C0 22.1616 0.782031 23.1 1.75 23.1H5.35391C5.69844 19.9894 7.2625 17.3709 9.46641 15.9206Z" fill="#0F3D3E"/>
</svg>
