<svg width="34" height="34" viewBox="0 0 34 34" fill="none" xmlns="http://www.w3.org/2000/svg">
<path d="M5.822 7.00014C3.39638 9.70922 2.03835 13.2077 2.00093 16.8438C1.90874 25.1524 8.69229 31.9843 17.0008 32C25.2976 32.0156 32.0007 25.2945 32.0007 17.0001C32.0007 8.83294 25.4734 2.18689 17.3524 2.00018C17.3067 1.99871 17.2611 2.00646 17.2185 2.02297C17.1758 2.03947 17.137 2.0644 17.1041 2.09626C17.0713 2.12812 17.0453 2.16626 17.0275 2.20841C17.0098 2.25056 17.0007 2.29585 17.0008 2.34158V8.87513" stroke="#0F3D3E" stroke-width="3" stroke-linecap="round" stroke-linejoin="round"/>
<path d="M15.2354 18.7672L9.06356 9.93914C8.97818 9.81683 8.93857 9.66836 8.95168 9.51977C8.96478 9.37118 9.02977 9.23194 9.13525 9.12646C9.24073 9.02098 9.37997 8.956 9.52856 8.94289C9.67715 8.92978 9.82562 8.96939 9.94793 9.05477L18.776 15.2266C19.3175 15.6166 19.6837 16.2041 19.7954 16.862C19.907 17.5199 19.7552 18.1953 19.3728 18.7421C18.9903 19.289 18.408 19.6632 17.7517 19.784C17.0954 19.9048 16.4179 19.7624 15.8659 19.3875C15.6218 19.2184 15.4085 19.0085 15.2354 18.7672Z" fill="#0F3D3E"/>
</svg>
