<svg width="34" height="34" viewBox="0 0 34 34" fill="none" xmlns="http://www.w3.org/2000/svg">
<path d="M28.8043 3.41748H4.62664C2.6237 3.41748 1 5.04118 1 7.04413V28.804C1 30.8069 2.6237 32.4306 4.62664 32.4306H28.8043C30.8072 32.4306 32.4309 30.8069 32.4309 28.804V7.04413C32.4309 5.04118 30.8072 3.41748 28.8043 3.41748Z" stroke="#0F3D3E" stroke-width="2" stroke-linejoin="round"/>
<path d="M19.7391 16.7155C20.7406 16.7155 21.5524 15.9037 21.5524 14.9022C21.5524 13.9007 20.7406 13.0889 19.7391 13.0889C18.7376 13.0889 17.9258 13.9007 17.9258 14.9022C17.9258 15.9037 18.7376 16.7155 19.7391 16.7155Z" fill="#0F3D3E"/>
<path d="M25.7821 16.7155C26.7835 16.7155 27.5954 15.9037 27.5954 14.9022C27.5954 13.9007 26.7835 13.0889 25.7821 13.0889C24.7806 13.0889 23.9688 13.9007 23.9688 14.9022C23.9688 15.9037 24.7806 16.7155 25.7821 16.7155Z" fill="#0F3D3E"/>
<path d="M19.7391 22.7599C20.7406 22.7599 21.5524 21.9481 21.5524 20.9466C21.5524 19.9452 20.7406 19.1333 19.7391 19.1333C18.7376 19.1333 17.9258 19.9452 17.9258 20.9466C17.9258 21.9481 18.7376 22.7599 19.7391 22.7599Z" fill="#0F3D3E"/>
<path d="M25.7821 22.7599C26.7835 22.7599 27.5954 21.9481 27.5954 20.9466C27.5954 19.9452 26.7835 19.1333 25.7821 19.1333C24.7806 19.1333 23.9688 19.9452 23.9688 20.9466C23.9688 21.9481 24.7806 22.7599 25.7821 22.7599Z" fill="#0F3D3E"/>
<path d="M7.64926 22.7599C8.65073 22.7599 9.46258 21.9481 9.46258 20.9466C9.46258 19.9452 8.65073 19.1333 7.64926 19.1333C6.64779 19.1333 5.83594 19.9452 5.83594 20.9466C5.83594 21.9481 6.64779 22.7599 7.64926 22.7599Z" fill="#0F3D3E"/>
<path d="M13.6922 22.7599C14.6937 22.7599 15.5056 21.9481 15.5056 20.9466C15.5056 19.9452 14.6937 19.1333 13.6922 19.1333C12.6908 19.1333 11.8789 19.9452 11.8789 20.9466C11.8789 21.9481 12.6908 22.7599 13.6922 22.7599Z" fill="#0F3D3E"/>
<path d="M7.64926 28.8044C8.65073 28.8044 9.46258 27.9925 9.46258 26.9911C9.46258 25.9896 8.65073 25.1777 7.64926 25.1777C6.64779 25.1777 5.83594 25.9896 5.83594 26.9911C5.83594 27.9925 6.64779 28.8044 7.64926 28.8044Z" fill="#0F3D3E"/>
<path d="M13.6922 28.8044C14.6937 28.8044 15.5056 27.9925 15.5056 26.9911C15.5056 25.9896 14.6937 25.1777 13.6922 25.1777C12.6908 25.1777 11.8789 25.9896 11.8789 26.9911C11.8789 27.9925 12.6908 28.8044 13.6922 28.8044Z" fill="#0F3D3E"/>
<path d="M19.7391 28.8044C20.7406 28.8044 21.5524 27.9925 21.5524 26.9911C21.5524 25.9896 20.7406 25.1777 19.7391 25.1777C18.7376 25.1777 17.9258 25.9896 17.9258 26.9911C17.9258 27.9925 18.7376 28.8044 19.7391 28.8044Z" fill="#0F3D3E"/>
<path d="M7.04297 1V3.41776M26.3851 1V3.41776" stroke="#0F3D3E" stroke-width="2" stroke-linecap="round" stroke-linejoin="round"/>
<path d="M32.4309 9.4624H1" stroke="#0F3D3E" stroke-width="2" stroke-linejoin="round"/>
</svg>
